# xmcd CD database file
#
# Track frame offsets:
#	150
#	28730
#	65154
#	81534
#	99014
#	119549
#	133342
#	166082
#	187216
#	210145
#
# Disc length: 3041 seconds
#
# Revision: 1
# Processed by: cddbd v1.5PL3 Copyright (c) Steve Scherf et al.
# Submitted via: CDex 1.51
#
DISCID=8d0bdf0a
DTITLE=John Luttrell - A Sense of Impending Levitation
DYEAR=2004
DGENRE=New Age
TTITLE0=The Sense
TTITLE1=Journey to Farpoint
TTITLE2=Twin Wind
TTITLE3=Side Trip
TTITLE4=Farpoint Theme
TTITLE5=Four O'Clock
TTITLE6=River's Edge
TTITLE7=An Early Start
TTITLE8=Chance Meeting
TTITLE9=Eleven Eleven
EXTD=YEAR: 2004
EXTT0=
EXTT1=
EXTT2=
EXTT3=
EXTT4=
EXTT5=
EXTT6=
EXTT7=
EXTT8=
EXTT9=
PLAYORDER=
